<svg xmlns="http://www.w3.org/2000/svg" width="32" height="32" viewBox="0 0 32 32">
  <rect width="32" height="32" fill="#0f172a" rx="6"/>
  <g fill="#ffffff">
    <!-- Heart symbol representing humanitarian aid -->
    <path d="M16 25.5c-.5 0-1-.2-1.4-.6L8.4 18.7c-2.3-2.3-2.3-6.1 0-8.4 2.3-2.3 6.1-2.3 8.4 0l.7.7.7-.7c2.3-2.3 6.1-2.3 8.4 0 2.3 2.3 2.3 6.1 0 8.4l-6.2 6.2c-.4.4-.9.6-1.4.6zm-4.2-18c-.8 0-1.6.3-2.2.9-1.2 1.2-1.2 3.2 0 4.4L16 19.2l6.4-6.4c1.2-1.2 1.2-3.2 0-4.4-1.2-1.2-3.2-1.2-4.4 0l-1.3 1.3c-.4.4-1 .4-1.4 0l-1.3-1.3c-.6-.6-1.4-.9-2.2-.9z"/>
  </g>
</svg>